# xmcd
# Copyright (C) 1995-1998 Ti Kan
#
# Track frame offsets:
#       150
#       17453
#       34243
#       69180
#       88708
#       115885
#       137400
#       153883
#       171508
#       195183
#       221960
#       257230
#       280590
#       298363
#
# Disc length: 4305 seconds
#
# Revision: 0
# Processed by: cddbd v1.5.2PL0 Copyright (c) Steve Scherf et al.
# Submitted via: CD-Import v1.0
#
DISCID=c710cf0e
DTITLE=Manowar - The Hell Of Steel
DYEAR=1994
DGENRE=
TTITLE0=Fighting The World
TTITLE1=Kings Of Metal
TTITLE2=The Demon's Whip
TTITLE3=The Warrior's Prayer
TTITLE4=Defender
TTITLE5=The Crown And The Ring
TTITLE6=Blow Your Speakers
TTITLE7=Metal Warriors
TTITLE8=Black Wind, Fire And Steel
TTITLE9=Hail And Kill
TTITLE10=The Power Of Thy Sword
TTITLE11=Herz Aus Stahl
TTITLE12=Kingdom Come
TTITLE13=Master Of The Wind
EXTD=
EXTT0=
EXTT1=
EXTT2=
EXTT3=
EXTT4=
EXTT5=
EXTT6=
EXTT7=
EXTT8=
EXTT9=
EXTT10=
EXTT11=
EXTT12=
EXTT13=
PLAYORDER=
